<svg xmlns="http://www.w3.org/2000/svg" width="24" height="24"><g transform="translate(0 -1028.362)"><circle cx="657.054" cy="437.094" r="15.268" fill="#ef4c45" fill-rule="evenodd" transform="translate(-504.421 696.821) scale(.78596)"/><path style="line-height:normal;text-indent:0;text-align:start;text-decoration-line:none;text-transform:none;block-progression:tb" fill="#df2209" d="M14.525 23.717a12 12 0 0 0 .686-.154 12 12 0 0 0 1.137-.38 12 12 0 0 0 1.095-.488 12 12 0 0 0 1.041-.597 12 12 0 0 0 .975-.698 12 12 0 0 0 .902-.793 12 12 0 0 0 .817-.877 12 12 0 0 0 .726-.955 12 12 0 0 0 .627-1.021 12 12 0 0 0 .522-1.08 12 12 0 0 0 .412-1.127 12 12 0 0 0 .26-1.016l-7.13-7.129A6.478 6.478 0 0 0 12 5.496a6.478 6.478 0 0 0-4.596 1.906A6.482 6.482 0 0 0 5.496 12a6.48 6.48 0 0 0 1.908 4.596l7.121 7.12z" color="#000" font-family="sans-serif" font-weight="400" transform="translate(0 1028.362)"/><path style="line-height:normal;text-indent:0;text-align:start;text-decoration-line:none;text-transform:none;block-progression:tb" fill="#fff" d="M8.498 1.994c1.662 0 3.324.635 4.596 1.906a6.494 6.494 0 0 1 0 9.194 6.491 6.491 0 0 1-9.192 0 6.48 6.48 0 0 1-1.879-5.219A6.482 6.482 0 0 1 3.903 3.9a6.478 6.478 0 0 1 4.595-1.906zm2.467 3.522c-.001 0-.003 0-.004.002a.506.506 0 0 0-.342.152L8.496 7.79 6.375 5.67a.506.506 0 0 0-.357-.152c-.397-.002-.635.584-.35.859l2.121 2.121-2.121 2.121c-.383.368.34 1.09.707.707l2.121-2.12 2.123 2.12c.368.383 1.09-.34.707-.707l-2.12-2.121 2.12-2.121c.29-.278.04-.874-.361-.861Z" color="#000" font-family="sans-serif" font-weight="400" overflow="visible" transform="translate(3.503 1031.865)"/></g></svg>